<?xml version="1.0" encoding="UTF-8" standalone="no"?>
<!-- Created with Inkscape (http://www.inkscape.org/) -->

<svg
   xmlns:dc="http://purl.org/dc/elements/1.1/"
   xmlns:cc="http://creativecommons.org/ns#"
   xmlns:rdf="http://www.w3.org/1999/02/22-rdf-syntax-ns#"
   xmlns:svg="http://www.w3.org/2000/svg"
   xmlns="http://www.w3.org/2000/svg"
   xmlns:sodipodi="http://sodipodi.sourceforge.net/DTD/sodipodi-0.dtd"
   xmlns:inkscape="http://www.inkscape.org/namespaces/inkscape"
   width="744.09448819"
   height="1052.3622047"
   id="svg2"
   version="1.1"
   inkscape:version="0.48.4 r9939"
   sodipodi:docname="drawing.svg">
  <defs
     id="defs4" />
  <sodipodi:namedview
     id="base"
     pagecolor="#ffffff"
     bordercolor="#666666"
     borderopacity="1.0"
     inkscape:pageopacity="0.0"
     inkscape:pageshadow="2"
     inkscape:zoom="0.98994949"
     inkscape:cx="179.72815"
     inkscape:cy="945.7132"
     inkscape:document-units="px"
     inkscape:current-layer="layer1"
     showgrid="true"
     showguides="true"
     inkscape:guide-bbox="true"
     inkscape:window-width="1366"
     inkscape:window-height="719"
     inkscape:window-x="0"
     inkscape:window-y="0"
     inkscape:window-maximized="1">
    <inkscape:grid
       type="xygrid"
       id="grid2997"
       empspacing="5"
       visible="true"
       enabled="true"
       snapvisiblegridlinesonly="true"
       spacingx="0.5mm"
       spacingy="0.5mm"
       units="mm" />
  </sodipodi:namedview>
  <metadata
     id="metadata7">
    <rdf:RDF>
      <cc:Work
         rdf:about="">
        <dc:format>image/svg+xml</dc:format>
        <dc:type
           rdf:resource="http://purl.org/dc/dcmitype/StillImage" />
        <dc:title></dc:title>
      </cc:Work>
    </rdf:RDF>
  </metadata>
  <g
     inkscape:label="Layer 1"
     inkscape:groupmode="layer"
     id="layer1">
    <path
       sodipodi:type="arc"
       style="fill:#008000"
       id="path2989"
       sodipodi:cx="302.85715"
       sodipodi:cy="333.79074"
       sodipodi:rx="80"
       sodipodi:ry="67.14286"
       d="m 382.85715,333.79074 a 80,67.14286 0 0 1 -0.003,0.58593"
       sodipodi:start="0"
       sodipodi:end="0.0087266463"
       sodipodi:open="true" />
    <path
       sodipodi:type="arc"
       style="fill:#008000"
       id="path2991"
       sodipodi:cx="164.28572"
       sodipodi:cy="376.64789"
       sodipodi:rx="70"
       sodipodi:ry="75.714287"
       d="m 234.28572,376.64789 a 70,75.714287 0 0 1 -0.003,0.66072"
       sodipodi:start="0"
       sodipodi:end="0.0087266463"
       sodipodi:open="true" />
    <path
       sodipodi:type="arc"
       style="fill:#008000"
       id="path2993"
       sodipodi:cx="174.28572"
       sodipodi:cy="389.50504"
       sodipodi:rx="42.857143"
       sodipodi:ry="25.714285"
       d="m 217.14286,389.50504 a 42.857143,25.714285 0 1 1 -85.71428,0 42.857143,25.714285 0 1 1 85.71428,0 z"
       transform="matrix(0.10308167,0,0,0.17200708,83.969894,50.8719)" />
    <path
       sodipodi:type="arc"
       style="fill:#008000"
       id="path2993-9"
       sodipodi:cx="174.28572"
       sodipodi:cy="389.50504"
       sodipodi:rx="42.857143"
       sodipodi:ry="25.714285"
       d="m 217.14286,389.50504 a 42.857143,25.714285 0 1 1 -85.71428,0 42.857143,25.714285 0 1 1 85.71428,0 z"
       transform="matrix(0.10455481,0,0,0.17200708,127.95569,50.871898)" />
    <path
       sodipodi:type="arc"
       style="fill:#008000"
       id="path2993-4"
       sodipodi:cx="174.28572"
       sodipodi:cy="389.50504"
       sodipodi:rx="42.857143"
       sodipodi:ry="25.714285"
       d="m 217.14286,389.50504 a 42.857143,25.714285 0 1 1 -85.71428,0 42.857143,25.714285 0 1 1 85.71428,0 z"
       transform="matrix(0.10308167,0,0,0.17200708,106.11664,77.499003)" />
    <path
       sodipodi:type="arc"
       style="fill:#008000"
       id="path2993-4-6"
       sodipodi:cx="174.28572"
       sodipodi:cy="389.50504"
       sodipodi:rx="42.857143"
       sodipodi:ry="25.714285"
       d="m 217.14286,389.50504 a 42.857143,25.714285 0 1 1 -85.71428,0 42.857143,25.714285 0 1 1 85.71428,0 z"
       transform="matrix(0.10308167,0,0,0.17200708,150.24284,77.495112)" />
    <path
       sodipodi:type="arc"
       style="fill:#008000"
       id="path2993-4-5"
       sodipodi:cx="174.28572"
       sodipodi:cy="389.50504"
       sodipodi:rx="42.857143"
       sodipodi:ry="25.714285"
       d="m 217.14286,389.50504 a 42.857143,25.714285 0 1 1 -85.71428,0 42.857143,25.714285 0 1 1 85.71428,0 z"
       transform="matrix(0.10308167,0,0,0.17200708,83.921359,103.94766)" />
    <path
       sodipodi:type="arc"
       style="fill:#008000"
       id="path2993-4-1"
       sodipodi:cx="174.28572"
       sodipodi:cy="389.50504"
       sodipodi:rx="42.857143"
       sodipodi:ry="25.714285"
       d="m 217.14286,389.50504 a 42.857143,25.714285 0 1 1 -85.71428,0 42.857143,25.714285 0 1 1 85.71428,0 z"
       transform="matrix(0.10308167,0,0,0.17200708,128.08444,104.0215)" />
    <path
       sodipodi:type="arc"
       style="fill:#008000"
       id="path2993-4-8"
       sodipodi:cx="174.28572"
       sodipodi:cy="389.50504"
       sodipodi:rx="42.857143"
       sodipodi:ry="25.714285"
       d="m 217.14286,389.50504 a 42.857143,25.714285 0 1 1 -85.71428,0 42.857143,25.714285 0 1 1 85.71428,0 z"
       transform="matrix(0.10308167,0,0,0.17200708,106.01369,130.57687)" />
    <path
       sodipodi:type="arc"
       style="fill:#008000"
       id="path2993-4-8-2"
       sodipodi:cx="174.28572"
       sodipodi:cy="389.50504"
       sodipodi:rx="42.857143"
       sodipodi:ry="25.714285"
       d="m 217.14286,389.50504 a 42.857143,25.714285 0 1 1 -85.71428,0 42.857143,25.714285 0 1 1 85.71428,0 z"
       transform="matrix(0.10308167,0,0,0.17200708,150.24674,130.54966)" />
    <path
       sodipodi:type="arc"
       style="fill:#008000"
       id="path2993-4-8-9"
       sodipodi:cx="174.28572"
       sodipodi:cy="389.50504"
       sodipodi:rx="42.857143"
       sodipodi:ry="25.714285"
       d="m 217.14286,389.50504 a 42.857143,25.714285 0 1 1 -85.71428,0 42.857143,25.714285 0 1 1 85.71428,0 z"
       transform="matrix(0.10308167,0,0,0.17200708,172.49439,103.94753)" />
    <path
       sodipodi:type="arc"
       style="fill:#008000"
       id="path2993-4-8-0"
       sodipodi:cx="174.28572"
       sodipodi:cy="389.50504"
       sodipodi:rx="42.857143"
       sodipodi:ry="25.714285"
       d="m 217.14286,389.50504 a 42.857143,25.714285 0 1 1 -85.71428,0 42.857143,25.714285 0 1 1 85.71428,0 z"
       transform="matrix(0.10308167,0,0,0.17374319,194.64769,129.83702)" />
    <path
       sodipodi:type="arc"
       style="fill:#008000"
       id="path2993-4-8-9-5"
       sodipodi:cx="174.28572"
       sodipodi:cy="389.50504"
       sodipodi:rx="42.857143"
       sodipodi:ry="25.714285"
       d="m 217.14286,389.50504 a 42.857143,25.714285 0 1 1 -85.71428,0 42.857143,25.714285 0 1 1 85.71428,0 z"
       transform="matrix(0.10308167,0,0,0.17200708,194.63725,77.595939)" />
    <path
       sodipodi:type="arc"
       style="fill:#008000"
       id="path2993-4-8-9-52"
       sodipodi:cx="174.28572"
       sodipodi:cy="389.50504"
       sodipodi:rx="42.857143"
       sodipodi:ry="25.714285"
       d="m 217.14286,389.50504 a 42.857143,25.714285 0 1 1 -85.71428,0 42.857143,25.714285 0 1 1 85.71428,0 z"
       transform="matrix(0.10308167,0,0,0.17200708,172.44975,50.797922)" />
  </g>
</svg>
