<?xml version="1.0" encoding="UTF-8" standalone="no"?>
<!-- Created with Inkscape (http://www.inkscape.org/) -->

<svg
   xmlns:dc="http://purl.org/dc/elements/1.1/"
   xmlns:cc="http://creativecommons.org/ns#"
   xmlns:rdf="http://www.w3.org/1999/02/22-rdf-syntax-ns#"
   xmlns:svg="http://www.w3.org/2000/svg"
   xmlns="http://www.w3.org/2000/svg"
   xmlns:sodipodi="http://sodipodi.sourceforge.net/DTD/sodipodi-0.dtd"
   xmlns:inkscape="http://www.inkscape.org/namespaces/inkscape"
   width="744.09448819"
   height="1052.3622047"
   id="svg2"
   version="1.1"
   inkscape:version="0.48.4 r9939"
   sodipodi:docname="bosque_artificial.svg">
  <defs
     id="defs4" />
  <sodipodi:namedview
     id="base"
     pagecolor="#ffffff"
     bordercolor="#666666"
     borderopacity="1.0"
     inkscape:pageopacity="0.0"
     inkscape:pageshadow="2"
     inkscape:zoom="0.7"
     inkscape:cx="126.36776"
     inkscape:cy="580.4096"
     inkscape:document-units="px"
     inkscape:current-layer="layer1"
     showgrid="true"
     showguides="true"
     inkscape:guide-bbox="true"
     inkscape:window-width="1366"
     inkscape:window-height="719"
     inkscape:window-x="0"
     inkscape:window-y="0"
     inkscape:window-maximized="1">
    <inkscape:grid
       type="xygrid"
       id="grid2997"
       empspacing="5"
       visible="true"
       enabled="true"
       snapvisiblegridlinesonly="true"
       spacingx="0.5mm"
       spacingy="0.5mm"
       units="mm" />
  </sodipodi:namedview>
  <metadata
     id="metadata7">
    <rdf:RDF>
      <cc:Work
         rdf:about="">
        <dc:format>image/svg+xml</dc:format>
        <dc:type
           rdf:resource="http://purl.org/dc/dcmitype/StillImage" />
        <dc:title></dc:title>
      </cc:Work>
    </rdf:RDF>
  </metadata>
  <g
     inkscape:label="Layer 1"
     inkscape:groupmode="layer"
     id="layer1">
    <path
       sodipodi:type="arc"
       style="fill:#008000"
       id="path2989"
       sodipodi:cx="302.85715"
       sodipodi:cy="333.79074"
       sodipodi:rx="80"
       sodipodi:ry="67.14286"
       d="m 382.85715,333.79074 a 80,67.14286 0 0 1 -0.003,0.58593"
       sodipodi:start="0"
       sodipodi:end="0.0087266463"
       sodipodi:open="true" />
    <path
       sodipodi:type="arc"
       style="fill:#008000"
       id="path2991"
       sodipodi:cx="164.28572"
       sodipodi:cy="376.64789"
       sodipodi:rx="70"
       sodipodi:ry="75.714287"
       d="m 234.28572,376.64789 a 70,75.714287 0 0 1 -0.003,0.66072"
       sodipodi:start="0"
       sodipodi:end="0.0087266463"
       sodipodi:open="true" />
    <path
       sodipodi:type="arc"
       style="fill:#008000"
       id="path2993"
       sodipodi:cx="174.28572"
       sodipodi:cy="389.50504"
       sodipodi:rx="42.857143"
       sodipodi:ry="25.714285"
       d="m 217.14286,389.50504 a 42.857143,25.714285 0 1 1 -85.71428,0 42.857143,25.714285 0 1 1 85.71428,0 z"
       transform="matrix(0.27551404,0,0,0.56017522,169.69023,186.5318)" />
    <path
       sodipodi:type="arc"
       style="fill:#008000"
       id="path2993-9"
       sodipodi:cx="174.28572"
       sodipodi:cy="389.50504"
       sodipodi:rx="42.857143"
       sodipodi:ry="25.714285"
       d="m 217.14286,389.50504 a 42.857143,25.714285 0 1 1 -85.71428,0 42.857143,25.714285 0 1 1 85.71428,0 z"
       transform="matrix(0.27945142,0,0,0.56017522,287.25434,186.53178)" />
    <path
       sodipodi:type="arc"
       style="fill:#008000"
       id="path2993-4"
       sodipodi:cx="174.28572"
       sodipodi:cy="389.50504"
       sodipodi:rx="42.857143"
       sodipodi:ry="25.714285"
       d="m 217.14286,389.50504 a 42.857143,25.714285 0 1 1 -85.71428,0 42.857143,25.714285 0 1 1 85.71428,0 z"
       transform="matrix(0.27551404,0,0,0.56017522,228.88348,273.24824)" />
    <path
       sodipodi:type="arc"
       style="fill:#008000"
       id="path2993-4-6"
       sodipodi:cx="174.28572"
       sodipodi:cy="389.50504"
       sodipodi:rx="42.857143"
       sodipodi:ry="25.714285"
       d="m 217.14286,389.50504 a 42.857143,25.714285 0 1 1 -85.71428,0 42.857143,25.714285 0 1 1 85.71428,0 z"
       transform="matrix(0.27551404,0,0,0.56017522,346.82287,273.23557)" />
    <path
       sodipodi:type="arc"
       style="fill:#008000"
       id="path2993-4-5"
       sodipodi:cx="174.28572"
       sodipodi:cy="389.50504"
       sodipodi:rx="42.857143"
       sodipodi:ry="25.714285"
       d="m 217.14286,389.50504 a 42.857143,25.714285 0 1 1 -85.71428,0 42.857143,25.714285 0 1 1 85.71428,0 z"
       transform="matrix(0.27551404,0,0,0.56017522,169.5605,359.38355)" />
    <path
       sodipodi:type="arc"
       style="fill:#008000"
       id="path2993-4-1"
       sodipodi:cx="174.28572"
       sodipodi:cy="389.50504"
       sodipodi:rx="42.857143"
       sodipodi:ry="25.714285"
       d="m 217.14286,389.50504 a 42.857143,25.714285 0 1 1 -85.71428,0 42.857143,25.714285 0 1 1 85.71428,0 z"
       transform="matrix(0.27551404,0,0,0.56017522,287.59846,359.62403)" />
    <path
       sodipodi:type="arc"
       style="fill:#008000"
       id="path2993-4-8"
       sodipodi:cx="174.28572"
       sodipodi:cy="389.50504"
       sodipodi:rx="42.857143"
       sodipodi:ry="25.714285"
       d="m 217.14286,389.50504 a 42.857143,25.714285 0 1 1 -85.71428,0 42.857143,25.714285 0 1 1 85.71428,0 z"
       transform="matrix(0.27551404,0,0,0.56017522,228.60833,446.10686)" />
    <path
       sodipodi:type="arc"
       style="fill:#008000"
       id="path2993-4-8-2"
       sodipodi:cx="174.28572"
       sodipodi:cy="389.50504"
       sodipodi:rx="42.857143"
       sodipodi:ry="25.714285"
       d="m 217.14286,389.50504 a 42.857143,25.714285 0 1 1 -85.71428,0 42.857143,25.714285 0 1 1 85.71428,0 z"
       transform="matrix(0.27551404,0,0,0.56017522,346.83329,446.01825)" />
    <path
       sodipodi:type="arc"
       style="fill:#008000"
       id="path2993-4-8-9"
       sodipodi:cx="174.28572"
       sodipodi:cy="389.50504"
       sodipodi:rx="42.857143"
       sodipodi:ry="25.714285"
       d="m 217.14286,389.50504 a 42.857143,25.714285 0 1 1 -85.71428,0 42.857143,25.714285 0 1 1 85.71428,0 z"
       transform="matrix(0.27551404,0,0,0.56017522,406.29624,359.38314)" />
    <path
       sodipodi:type="arc"
       style="fill:#008000"
       id="path2993-4-8-0"
       sodipodi:cx="174.28572"
       sodipodi:cy="389.50504"
       sodipodi:rx="42.857143"
       sodipodi:ry="25.714285"
       d="m 217.14286,389.50504 a 42.857143,25.714285 0 1 1 -85.71428,0 42.857143,25.714285 0 1 1 85.71428,0 z"
       transform="matrix(0.27551404,0,0,0.56582921,465.50702,443.69739)" />
    <path
       sodipodi:type="arc"
       style="fill:#008000"
       id="path2993-4-8-9-5"
       sodipodi:cx="174.28572"
       sodipodi:cy="389.50504"
       sodipodi:rx="42.857143"
       sodipodi:ry="25.714285"
       d="m 217.14286,389.50504 a 42.857143,25.714285 0 1 1 -85.71428,0 42.857143,25.714285 0 1 1 85.71428,0 z"
       transform="matrix(0.27551404,0,0,0.56017522,465.47911,273.56394)" />
    <path
       sodipodi:type="arc"
       style="fill:#008000"
       id="path2993-4-8-9-52"
       sodipodi:cx="174.28572"
       sodipodi:cy="389.50504"
       sodipodi:rx="42.857143"
       sodipodi:ry="25.714285"
       d="m 217.14286,389.50504 a 42.857143,25.714285 0 1 1 -85.71428,0 42.857143,25.714285 0 1 1 85.71428,0 z"
       transform="matrix(0.27551404,0,0,0.56017522,406.17692,186.29087)" />
  </g>
</svg>
