<?xml version="1.0" encoding="UTF-8" standalone="no"?>
<!-- Created with Inkscape (http://www.inkscape.org/) -->

<svg
   xmlns:dc="http://purl.org/dc/elements/1.1/"
   xmlns:cc="http://creativecommons.org/ns#"
   xmlns:rdf="http://www.w3.org/1999/02/22-rdf-syntax-ns#"
   xmlns:svg="http://www.w3.org/2000/svg"
   xmlns="http://www.w3.org/2000/svg"
   xmlns:sodipodi="http://sodipodi.sourceforge.net/DTD/sodipodi-0.dtd"
   xmlns:inkscape="http://www.inkscape.org/namespaces/inkscape"
   width="744.09448819"
   height="1052.3622047"
   id="svg2"
   version="1.1"
   inkscape:version="0.48.4 r9939"
   sodipodi:docname="coniferas.svg">
  <defs
     id="defs4" />
  <sodipodi:namedview
     id="base"
     pagecolor="#ffffff"
     bordercolor="#666666"
     borderopacity="1.0"
     inkscape:pageopacity="0.0"
     inkscape:pageshadow="2"
     inkscape:zoom="1.4"
     inkscape:cx="144.67842"
     inkscape:cy="707.97444"
     inkscape:document-units="px"
     inkscape:current-layer="layer1"
     showgrid="true"
     showguides="false"
     inkscape:guide-bbox="true"
     inkscape:window-width="1103"
     inkscape:window-height="694"
     inkscape:window-x="0"
     inkscape:window-y="0"
     inkscape:window-maximized="0">
    <inkscape:grid
       type="xygrid"
       id="grid3984"
       empspacing="5"
       visible="true"
       enabled="true"
       snapvisiblegridlinesonly="true"
       spacingx="0.3px"
       spacingy="0.3px"
       units="px" />
  </sodipodi:namedview>
  <metadata
     id="metadata7">
    <rdf:RDF>
      <cc:Work
         rdf:about="">
        <dc:format>image/svg+xml</dc:format>
        <dc:type
           rdf:resource="http://purl.org/dc/dcmitype/StillImage" />
        <dc:title></dc:title>
      </cc:Work>
    </rdf:RDF>
  </metadata>
  <g
     inkscape:label="Layer 1"
     inkscape:groupmode="layer"
     id="layer1">
    <path
       sodipodi:type="arc"
       style="fill:#008000"
       id="path2989"
       sodipodi:cx="302.85715"
       sodipodi:cy="333.79074"
       sodipodi:rx="80"
       sodipodi:ry="67.14286"
       d="m 382.85715,333.79074 a 80,67.14286 0 0 1 -0.003,0.58593"
       sodipodi:start="0"
       sodipodi:end="0.0087266463"
       sodipodi:open="true" />
    <path
       sodipodi:type="arc"
       style="fill:#008000"
       id="path2991"
       sodipodi:cx="164.28572"
       sodipodi:cy="376.64789"
       sodipodi:rx="70"
       sodipodi:ry="75.714287"
       d="m 234.28572,376.64789 a 70,75.714287 0 0 1 -0.003,0.66072"
       sodipodi:start="0"
       sodipodi:end="0.0087266463"
       sodipodi:open="true" />
    <path
       style="fill:none;stroke:#129e07;stroke-width:2.12641215;stroke-linecap:butt;stroke-linejoin:miter;stroke-miterlimit:4;stroke-opacity:1;stroke-dasharray:none"
       d="M 78.866142,386.93065 91.988456,359.4854"
       id="path4004"
       inkscape:connector-curvature="0" />
    <path
       style="fill:none;stroke:#129e07;stroke-width:4.25282431;stroke-linecap:butt;stroke-linejoin:miter;stroke-miterlimit:4;stroke-opacity:1;stroke-dasharray:none"
       d="m 91.988456,359.4854 13.122314,27.44525"
       id="path4006"
       inkscape:connector-curvature="0" />
    <path
       sodipodi:type="arc"
       style="fill:#0c9f0c;fill-opacity:1;stroke:#129e07;stroke-width:0.70866144;stroke-linejoin:miter;stroke-miterlimit:4;stroke-opacity:1;stroke-dasharray:none"
       id="path4025"
       sodipodi:cx="86"
       sodipodi:cy="391.96219"
       sodipodi:rx="0.40000001"
       sodipodi:ry="0.40000001"
       d="m 86.4,391.96219 a 0.40000001,0.40000001 0 1 1 -0.8,0 0.40000001,0.40000001 0 1 1 0.8,0 z"
       transform="matrix(3.4661032,0,0,2.9028733,-208.71213,-746.51508)" />
    <path
       sodipodi:type="arc"
       style="fill:#0c9f0c;fill-opacity:1;stroke:#129e07;stroke-width:0.70866144;stroke-linejoin:miter;stroke-miterlimit:4;stroke-opacity:1;stroke-dasharray:none"
       id="path4025-3"
       sodipodi:cx="86"
       sodipodi:cy="391.96219"
       sodipodi:rx="0.40000001"
       sodipodi:ry="0.40000001"
       d="m 86.4,391.96219 a 0.40000001,0.40000001 0 1 1 -0.8,0 0.40000001,0.40000001 0 1 1 0.8,0 z"
       transform="matrix(2.6056563,0,0,2.1875155,-122.73152,-466.09249)" />
    <path
       sodipodi:type="arc"
       style="fill:#0c9f0c;fill-opacity:1;stroke:#129e07;stroke-width:0.70866144;stroke-linejoin:miter;stroke-miterlimit:4;stroke-opacity:1;stroke-dasharray:none"
       id="path4025-3-2"
       sodipodi:cx="86"
       sodipodi:cy="391.96219"
       sodipodi:rx="0.40000001"
       sodipodi:ry="0.40000001"
       d="m 86.4,391.96219 a 0.40000001,0.40000001 0 1 1 -0.8,0 0.40000001,0.40000001 0 1 1 0.8,0 z"
       transform="matrix(2.6056563,0,0,2.1875155,-112.66132,-466.09249)" />
    <path
       style="fill:none;stroke:#129e07;stroke-width:2.12641215;stroke-linecap:butt;stroke-linejoin:miter;stroke-miterlimit:4;stroke-opacity:1;stroke-dasharray:none"
       d="m 220.15185,386.64494 13.12232,-27.44525"
       id="path4004-7"
       inkscape:connector-curvature="0" />
    <path
       style="fill:none;stroke:#129e07;stroke-width:4.25282431;stroke-linecap:butt;stroke-linejoin:miter;stroke-miterlimit:4;stroke-opacity:1;stroke-dasharray:none"
       d="m 233.27417,359.19969 13.12231,27.44525"
       id="path4006-7"
       inkscape:connector-curvature="0" />
    <path
       sodipodi:type="arc"
       style="fill:#0c9f0c;fill-opacity:1;stroke:#129e07;stroke-width:0.70866144;stroke-linejoin:miter;stroke-miterlimit:4;stroke-opacity:1;stroke-dasharray:none"
       id="path4025-6"
       sodipodi:cx="86"
       sodipodi:cy="391.96219"
       sodipodi:rx="0.40000001"
       sodipodi:ry="0.40000001"
       d="m 86.4,391.96219 a 0.40000001,0.40000001 0 1 1 -0.8,0 0.40000001,0.40000001 0 1 1 0.8,0 z"
       transform="matrix(3.4661032,0,0,2.9028733,-67.42642,-746.80082)" />
    <path
       sodipodi:type="arc"
       style="fill:#0c9f0c;fill-opacity:1;stroke:#129e07;stroke-width:0.70866144;stroke-linejoin:miter;stroke-miterlimit:4;stroke-opacity:1;stroke-dasharray:none"
       id="path4025-3-1"
       sodipodi:cx="86"
       sodipodi:cy="391.96219"
       sodipodi:rx="0.40000001"
       sodipodi:ry="0.40000001"
       d="m 86.4,391.96219 a 0.40000001,0.40000001 0 1 1 -0.8,0 0.40000001,0.40000001 0 1 1 0.8,0 z"
       transform="matrix(2.6056563,0,0,2.1875155,18.55419,-466.3782)" />
    <path
       sodipodi:type="arc"
       style="fill:#0c9f0c;fill-opacity:1;stroke:#129e07;stroke-width:0.70866144;stroke-linejoin:miter;stroke-miterlimit:4;stroke-opacity:1;stroke-dasharray:none"
       id="path4025-3-2-1"
       sodipodi:cx="86"
       sodipodi:cy="391.96219"
       sodipodi:rx="0.40000001"
       sodipodi:ry="0.40000001"
       d="m 86.4,391.96219 a 0.40000001,0.40000001 0 1 1 -0.8,0 0.40000001,0.40000001 0 1 1 0.8,0 z"
       transform="matrix(2.6056563,0,0,2.1875155,28.62439,-466.3782)" />
    <g
       id="g4796">
      <path
         sodipodi:open="true"
         sodipodi:end="0.0087266463"
         sodipodi:start="0"
         d="m 234.28572,376.64789 a 70,75.714287 0 0 1 -0.003,0.66072"
         sodipodi:ry="75.714287"
         sodipodi:rx="70"
         sodipodi:cy="376.64789"
         sodipodi:cx="164.28572"
         id="path2991-8"
         style="fill:#008000"
         sodipodi:type="arc"
         transform="translate(-69.285714,-64.85714)" />
      <path
         inkscape:connector-curvature="0"
         id="path4004-7-1"
         d="m 150.86614,321.7878 13.12232,-27.44525"
         style="fill:none;stroke:#129e07;stroke-width:2.12641215;stroke-linecap:butt;stroke-linejoin:miter;stroke-miterlimit:4;stroke-opacity:1;stroke-dasharray:none" />
      <path
         inkscape:connector-curvature="0"
         id="path4006-7-0"
         d="m 163.98846,294.34255 13.12231,27.44525"
         style="fill:none;stroke:#129e07;stroke-width:4.25282431;stroke-linecap:butt;stroke-linejoin:miter;stroke-miterlimit:4;stroke-opacity:1;stroke-dasharray:none" />
      <path
         transform="matrix(3.4661032,0,0,2.9028733,-136.71213,-811.65796)"
         d="m 86.4,391.96219 a 0.40000001,0.40000001 0 1 1 -0.8,0 0.40000001,0.40000001 0 1 1 0.8,0 z"
         sodipodi:ry="0.40000001"
         sodipodi:rx="0.40000001"
         sodipodi:cy="391.96219"
         sodipodi:cx="86"
         id="path4025-6-7"
         style="fill:#0c9f0c;fill-opacity:1;stroke:#129e07;stroke-width:0.70866144;stroke-linejoin:miter;stroke-miterlimit:4;stroke-opacity:1;stroke-dasharray:none"
         sodipodi:type="arc" />
      <path
         transform="matrix(2.6056563,0,0,2.1875155,-50.731524,-531.23534)"
         d="m 86.4,391.96219 a 0.40000001,0.40000001 0 1 1 -0.8,0 0.40000001,0.40000001 0 1 1 0.8,0 z"
         sodipodi:ry="0.40000001"
         sodipodi:rx="0.40000001"
         sodipodi:cy="391.96219"
         sodipodi:cx="86"
         id="path4025-3-1-1"
         style="fill:#0c9f0c;fill-opacity:1;stroke:#129e07;stroke-width:0.70866144;stroke-linejoin:miter;stroke-miterlimit:4;stroke-opacity:1;stroke-dasharray:none"
         sodipodi:type="arc" />
      <path
         transform="matrix(2.6056563,0,0,2.1875155,-40.661324,-531.23534)"
         d="m 86.4,391.96219 a 0.40000001,0.40000001 0 1 1 -0.8,0 0.40000001,0.40000001 0 1 1 0.8,0 z"
         sodipodi:ry="0.40000001"
         sodipodi:rx="0.40000001"
         sodipodi:cy="391.96219"
         sodipodi:cx="86"
         id="path4025-3-2-1-0"
         style="fill:#0c9f0c;fill-opacity:1;stroke:#129e07;stroke-width:0.70866144;stroke-linejoin:miter;stroke-miterlimit:4;stroke-opacity:1;stroke-dasharray:none"
         sodipodi:type="arc" />
    </g>
    <path
       transform="translate(-68.142857,65.714289)"
       sodipodi:type="arc"
       style="fill:#008000"
       id="path2991-5"
       sodipodi:cx="164.28572"
       sodipodi:cy="376.64789"
       sodipodi:rx="70"
       sodipodi:ry="75.714287"
       d="m 234.28572,376.64789 a 70,75.714287 0 0 1 -0.003,0.66072"
       sodipodi:start="0"
       sodipodi:end="0.0087266463"
       sodipodi:open="true" />
    <path
       style="fill:none;stroke:#129e07;stroke-width:2.12641215;stroke-linecap:butt;stroke-linejoin:miter;stroke-miterlimit:4;stroke-opacity:1;stroke-dasharray:none"
       d="m 152.00899,452.35923 13.12232,-27.44525"
       id="path4004-7-3"
       inkscape:connector-curvature="0" />
    <path
       style="fill:none;stroke:#129e07;stroke-width:4.25282431;stroke-linecap:butt;stroke-linejoin:miter;stroke-miterlimit:4;stroke-opacity:1;stroke-dasharray:none"
       d="m 165.13131,424.91398 13.12231,27.44525"
       id="path4006-7-8"
       inkscape:connector-curvature="0" />
    <path
       sodipodi:type="arc"
       style="fill:#0c9f0c;fill-opacity:1;stroke:#129e07;stroke-width:0.70866144;stroke-linejoin:miter;stroke-miterlimit:4;stroke-opacity:1;stroke-dasharray:none"
       id="path4025-6-5"
       sodipodi:cx="86"
       sodipodi:cy="391.96219"
       sodipodi:rx="0.40000001"
       sodipodi:ry="0.40000001"
       d="m 86.4,391.96219 a 0.40000001,0.40000001 0 1 1 -0.8,0 0.40000001,0.40000001 0 1 1 0.8,0 z"
       transform="matrix(3.4661032,0,0,2.9028733,-135.56928,-681.08653)" />
    <path
       sodipodi:type="arc"
       style="fill:#0c9f0c;fill-opacity:1;stroke:#129e07;stroke-width:0.70866144;stroke-linejoin:miter;stroke-miterlimit:4;stroke-opacity:1;stroke-dasharray:none"
       id="path4025-3-1-3"
       sodipodi:cx="86"
       sodipodi:cy="391.96219"
       sodipodi:rx="0.40000001"
       sodipodi:ry="0.40000001"
       d="m 86.4,391.96219 a 0.40000001,0.40000001 0 1 1 -0.8,0 0.40000001,0.40000001 0 1 1 0.8,0 z"
       transform="matrix(2.6056563,0,0,2.1875155,-49.588667,-400.66391)" />
    <path
       sodipodi:type="arc"
       style="fill:#0c9f0c;fill-opacity:1;stroke:#129e07;stroke-width:0.70866144;stroke-linejoin:miter;stroke-miterlimit:4;stroke-opacity:1;stroke-dasharray:none"
       id="path4025-3-2-1-4"
       sodipodi:cx="86"
       sodipodi:cy="391.96219"
       sodipodi:rx="0.40000001"
       sodipodi:ry="0.40000001"
       d="m 86.4,391.96219 a 0.40000001,0.40000001 0 1 1 -0.8,0 0.40000001,0.40000001 0 1 1 0.8,0 z"
       transform="matrix(2.6056563,0,0,2.1875155,-39.518467,-400.66391)" />
  </g>
</svg>
