<?xml version="1.0" encoding="UTF-8" standalone="no"?>
<!-- Created with Inkscape (http://www.inkscape.org/) -->

<svg
   xmlns:dc="http://purl.org/dc/elements/1.1/"
   xmlns:cc="http://creativecommons.org/ns#"
   xmlns:rdf="http://www.w3.org/1999/02/22-rdf-syntax-ns#"
   xmlns:svg="http://www.w3.org/2000/svg"
   xmlns="http://www.w3.org/2000/svg"
   xmlns:sodipodi="http://sodipodi.sourceforge.net/DTD/sodipodi-0.dtd"
   xmlns:inkscape="http://www.inkscape.org/namespaces/inkscape"
   width="744.09448819"
   height="1052.3622047"
   id="svg2"
   version="1.1"
   inkscape:version="0.48.4 r9939"
   sodipodi:docname="New document 1">
  <defs
     id="defs4" />
  <sodipodi:namedview
     id="base"
     pagecolor="#ffffff"
     bordercolor="#666666"
     borderopacity="1.0"
     inkscape:pageopacity="0.0"
     inkscape:pageshadow="2"
     inkscape:zoom="0.35"
     inkscape:cx="-120.71429"
     inkscape:cy="520"
     inkscape:document-units="px"
     inkscape:current-layer="layer1"
     showgrid="false"
     inkscape:window-width="1366"
     inkscape:window-height="676"
     inkscape:window-x="0"
     inkscape:window-y="0"
     inkscape:window-maximized="1" />
  <metadata
     id="metadata7">
    <rdf:RDF>
      <cc:Work
         rdf:about="">
        <dc:format>image/svg+xml</dc:format>
        <dc:type
           rdf:resource="http://purl.org/dc/dcmitype/StillImage" />
        <dc:title></dc:title>
      </cc:Work>
    </rdf:RDF>
  </metadata>
  <g
     inkscape:label="Layer 1"
     inkscape:groupmode="layer"
     id="layer1">
    <path
       style="fill:#00d8eb;fill-opacity:1;stroke:#000000;stroke-width:1.44753587px;stroke-linecap:butt;stroke-linejoin:miter;stroke-opacity:1"
       d="m 325.25162,295.46959 c -7.51722,9.42976 -22.34398,-17.62894 -28.69704,-20.86187 -0.91884,-0.46759 -15.42412,0 -16.3983,0 -2.83085,0 -15.15189,-0.63429 -16.39831,0 -1.23346,0.62767 -10.31906,12.37438 -12.29874,8.34474 -1.36651,-2.78159 10.35983,-6.37142 8.19917,-4.17237 -3.48397,3.54583 -8.45134,5.21217 -12.29873,8.34474 -5.74748,4.67962 -11.11633,11.31375 -16.39831,16.68952 -2.41115,2.45396 -15.44909,14.75736 -16.39832,16.68951 -0.61112,1.24395 0.61113,2.9284 0,4.17237 -0.86425,1.75924 -3.2353,2.41315 -4.09957,4.17238 -0.61113,1.24396 0.75802,3.01517 0,4.17238 -2.73306,2.78158 -5.4661,5.56317 -8.19915,8.34475 0,1.39079 0.61112,2.92842 0,4.17237 -0.86427,1.75924 -3.48845,2.30643 -4.09959,4.17239 -1.2964,3.95825 0,8.34474 0,12.51713 0,12.51712 0,25.03425 0,37.55138 0,2.78159 0.86427,5.70592 0,8.34476 -2.21103,6.75092 -8.19913,1.30087 -8.19913,12.51714 0,1.39079 -0.61114,2.9284 0,4.17237 3.77368,7.6814 8.52502,0.66335 12.29872,8.34474 2.8274,5.75521 -4.96481,3.7321 4.09958,8.34477 2.20982,1.12453 5.98934,-1.12453 8.19914,0 1.0885,0.55391 11.75449,11.40933 12.29874,12.51714 0.61113,1.24395 0.61113,2.92841 0,4.17237 -0.86427,1.75922 -2.73306,2.78158 -4.09957,4.17237 -2.73306,2.78159 -5.4661,5.56317 -8.19917,8.34476 -10.93219,11.12634 -21.8644,22.25266 -32.79661,33.37901 -2.2882,2.32885 -19.24678,18.31526 -20.49788,20.86189 -1.22226,2.48793 0,5.56317 0,8.34475 0,1.39079 0.75801,3.01517 0,4.17239 -2.14399,3.27307 -6.05517,5.07166 -8.19916,8.34474 -0.758,1.15722 0,2.78158 0,4.17237 0,2.78161 0.86428,5.70592 0,8.34476 -0.61114,1.86594 -3.63087,2.26424 -4.09957,4.17238 -1.07862,4.39113 0,19.04518 0,25.03426 0,11.12635 0,22.25267 0,33.37902 0,4.17239 -1.29641,8.55887 0,12.51714 0.61113,1.86593 3.63086,2.26422 4.09957,4.17237 0.9943,4.0478 -0.99429,8.46933 0,12.51713 0.46872,1.90816 3.23533,2.41315 4.09958,4.17239 0.61113,1.24395 -0.43214,2.85294 0,4.17237 1.42243,4.34308 4.17871,9.78922 8.19915,12.51713 3.74492,2.54094 9.94882,3.56146 12.29874,8.34475 0.61113,1.24397 -0.96629,3.18894 0,4.17239 3.48396,3.54583 8.35707,5.336 12.29874,8.34474 3.09208,2.36027 4.74208,6.58553 8.19913,8.34476 1.22227,0.62197 2.73306,0 4.09959,0 4.09958,0 8.19915,0 12.29872,0 2.73307,0 5.54772,-0.67465 8.19917,0 2.96439,0.75426 5.23474,3.41812 8.19915,4.17237 2.65145,0.67464 5.57126,-0.76416 8.19915,0 7.07583,2.05757 13.51657,5.97633 20.49789,8.34476 14.64789,4.96934 -16.88826,-16.15423 16.39831,4.17238 3.31431,2.0239 4.61047,6.88379 8.19915,8.34474 3.80635,1.54959 8.32156,-1.01193 12.29872,0 1.87486,0.47705 2.2662,3.5504 4.09959,4.17239 2.59279,0.87962 5.60635,-0.87962 8.19915,0 4.34067,1.47258 5.99779,10.5852 8.19917,8.34474 1.08188,-1.10111 -1.22612,-22.53848 0,-25.03425 1.62065,-3.29889 6.57847,-5.04587 8.19913,-8.34476 0.61114,-1.24397 0,-2.78157 0,-4.17237 0,-8.50512 -2.24677,-22.74759 4.09957,-29.20664 0.96629,-0.98345 2.73307,0 4.0996,0 4.09957,0 8.19914,0 12.29872,0 17.76484,0 35.52967,0 53.2945,0 16.0148,0 0.4328,-1.24397 16.39831,4.17238 3.51194,1.19142 12.78159,-0.92025 16.39832,0 2.96439,0.75425 5.23473,3.41811 8.19914,4.17237 5.30289,1.34927 11.2127,-1.75922 16.3983,0 5.79768,1.96688 10.78116,5.89465 16.39831,8.34476 3.97195,1.73248 8.43362,2.20549 12.29873,4.17237 12.50191,6.36197 -7.49788,3.30771 12.29874,8.34476 2.65145,0.67463 5.51916,-0.54552 8.19915,0 4.23743,0.86254 8.10642,3.10569 12.29874,4.17237 1.32571,0.33732 2.96256,-0.77148 4.09957,0 3.21598,2.18206 4.98319,6.16271 8.19915,8.34476 1.13701,0.77147 2.77385,0.33731 4.09959,0 4.1923,-1.0667 8.4336,-2.2055 12.29873,-4.17238 1.32495,-0.67424 15.15395,-14.78982 16.39831,-16.68951 1.69495,-2.58759 2.26618,-5.85682 4.09957,-8.34474 2.31906,-3.14702 6.47062,-4.82632 8.19915,-8.34476 0.64134,-1.30547 0,-22.44884 0,-25.03427 0,-2.32883 0.62555,-18.95191 0,-20.86188 -0.61112,-1.86594 -3.48845,-2.30643 -4.09958,-4.17237 -0.86427,-2.63885 0.86426,-5.70592 0,-8.34476 -0.61112,-1.86595 -3.48844,-2.30643 -4.09957,-4.17237 -1.2637,-3.85847 1.35046,-22.28538 0,-25.03428 -3.89896,-7.93637 -10.0325,-2.01275 -16.39831,-4.17237 -3.51791,-1.19345 -7.57132,-10.60021 -8.19917,-12.51713 -0.43212,-1.31942 0.75803,-3.01518 0,-4.17238 -2.14397,-3.27308 -6.05514,-5.07167 -8.19913,-8.34476 -0.75803,-1.15721 0,-2.78157 0,-4.17237 0,-1.39078 0,-2.78159 0,-4.17239 0,-2.32883 -0.62555,-18.95191 0,-20.86187 0.61111,-1.86594 2.37103,-3.29276 4.09956,-4.17238 1.22227,-0.62198 2.87734,0.62197 4.09957,0 1.72855,-0.87961 2.2662,-3.5504 4.0996,-4.17238 2.59279,-0.87961 5.60636,0.87961 8.19914,0 3.66678,-1.24396 4.98319,-6.16269 8.19917,-8.34475 2.54243,-1.72506 5.6567,-2.44731 8.19914,-4.17237 1.608,-1.09103 2.73305,-2.78159 4.09958,-4.17239 2.73305,-2.78158 5.46611,-5.56317 8.19915,-8.34474 2.73306,-2.78161 4.98319,-6.16271 8.19917,-8.34476 1.13701,-0.77147 2.73304,0 4.09957,0 2.73304,0 5.60635,0.87961 8.19915,0 7.44439,-2.52554 2.4177,-4.0654 4.09958,-8.34475 2.26968,-5.77496 4.53237,-11.71366 8.19914,-16.68952 0.81992,-1.11263 3.34158,1.1572 4.09959,0 2.39703,-3.65942 2.39732,-8.47466 4.09958,-12.51712 2.73304,-5.56318 5.4661,-11.12634 8.19915,-16.68953 0,-1.39078 -0.43214,-2.85294 0,-4.17237 0.96628,-2.95031 3.13328,-5.39444 4.09957,-8.34474 0.73958,-2.25813 0,-15.26809 0,-16.68952 0,-3.18946 0.57671,-28.03275 0,-29.20664 -0.41369,-0.84208 -11.57398,-12.22209 -12.29872,-12.51712 -5.23134,-2.12971 -11.35881,-1.60788 -16.39831,-4.17239 -3.45708,-1.75922 -5.46611,-5.56316 -8.19916,-8.34474 -1.36653,-1.3908 -2.22471,-3.69535 -4.09957,-4.17239 -3.97719,-1.01194 -8.19917,0 -12.29874,0 -12.29873,0 -24.59747,0 -36.89618,0 -2.73307,0 -5.46611,0 -8.19917,0 -1.36652,0 -2.83078,0.51654 -4.09956,0 -5.6742,-2.30997 -10.60063,-6.37786 -16.39831,-8.34475 -13.11865,-4.45053 -4.66058,7.91654 -20.49789,-4.17237 -7.47856,-5.70852 -2.17056,-9.81804 -4.09958,-16.68952 -2.02165,-7.20147 -6.17749,-13.66042 -8.19916,-20.86188 -0.79006,-2.81439 0,-26.51619 0,-29.20663 0,-18.0803 0,-36.16062 0,-54.24092 0,-2.32883 0.62555,-18.95191 0,-20.86187 -0.61111,-1.86594 -2.37103,-3.29277 -4.09956,-4.17238 -0.91884,-0.46758 -15.42414,0 -16.39831,0 -3.00204,0 -20.5254,-0.82888 -24.59747,0 -4.23742,0.86254 -8.03619,3.44933 -12.29874,4.17238 -4.04379,0.68593 -8.19914,0 -12.29872,0 -1.36653,0 -2.96256,-0.77148 -4.09959,0 -3.21597,2.18205 -4.61047,6.88379 -8.19913,8.34474 -3.80637,1.54959 -8.32157,-1.01193 -12.29874,0 -1.87486,0.47704 -2.26618,3.5504 -4.09958,4.17239 -2.5928,0.87962 -5.75464,-1.24397 -8.19916,0 -3.45706,1.75922 -4.98317,6.16269 -8.19915,8.34474 -1.13703,0.77149 -2.87732,-0.62198 -4.09957,0 -1.72855,0.87962 -2.73305,2.78159 -4.09958,4.17239 -2.73304,0 -5.60636,-0.87962 -8.19915,0 -3.5179,1.19346 -7.57133,10.60021 -8.19916,12.51712 -0.86426,2.63885 1.22225,5.85684 0,8.34476 -1.72853,3.51846 -6.47062,4.8263 -8.19915,8.34476 -0.61113,1.24395 0.61113,2.9284 0,4.17237 -0.86427,1.75924 -3.2353,2.41315 -4.09957,4.17237 -0.61113,1.24398 0,2.78159 0,4.17239 -1.36653,2.78159 -2.40462,5.75715 -4.0996,8.34476 -1.327,2.02586 -8.19914,7.53987 -8.19914,8.34476 0,7.09166 2.73305,13.9079 4.09957,20.86187 z"
       id="path2985"
       inkscape:connector-curvature="0" />
  </g>
</svg>
